<mxfile host="app.diagrams.net" modified="2020-12-01T05:08:01.718Z" agent="5.0 (Windows)" etag="8k5LJiFdGnsY0VMDEpCz" version="13.10.4" type="github">
  <diagram id="C-Z9xWYiqcwN5YgLJnE1" name="Page-1">
    <mxGraphModel dx="1038" dy="547" grid="1" gridSize="10" guides="1" tooltips="1" connect="1" arrows="1" fold="1" page="1" pageScale="1" pageWidth="1169" pageHeight="827" math="0" shadow="0">
      <root>
        <mxCell id="0" />
        <mxCell id="1" parent="0" />
        <mxCell id="J6xqg7GXFHYMLYkUjcn5-1" value="Conduct Training Evaluation" style="swimlane;html=1;childLayout=stackLayout;resizeParent=1;resizeParentMax=0;horizontal=1;startSize=20;horizontalStack=0;" parent="1" vertex="1">
          <mxGeometry x="10" y="10" width="1150" height="450" as="geometry" />
        </mxCell>
        <mxCell id="J6xqg7GXFHYMLYkUjcn5-2" value="DDHR" style="swimlane;html=1;startSize=20;horizontal=0;" parent="J6xqg7GXFHYMLYkUjcn5-1" vertex="1">
          <mxGeometry y="20" width="1150" height="190" as="geometry" />
        </mxCell>
        <mxCell id="9-p3QIqHMCxuxGA2po6K-1" value="Start" style="rounded=1;whiteSpace=wrap;html=1;" vertex="1" parent="J6xqg7GXFHYMLYkUjcn5-2">
          <mxGeometry x="160" y="10" width="100" height="50" as="geometry" />
        </mxCell>
        <mxCell id="9-p3QIqHMCxuxGA2po6K-2" value="Send out questionnaires to all the Officers who have been trained during the last three (3) years" style="rounded=0;whiteSpace=wrap;html=1;" vertex="1" parent="J6xqg7GXFHYMLYkUjcn5-2">
          <mxGeometry x="130" y="110" width="160" height="70" as="geometry" />
        </mxCell>
        <mxCell id="9-p3QIqHMCxuxGA2po6K-4" value="" style="edgeStyle=orthogonalEdgeStyle;rounded=0;orthogonalLoop=1;jettySize=auto;html=1;entryX=0.5;entryY=0;entryDx=0;entryDy=0;" edge="1" parent="J6xqg7GXFHYMLYkUjcn5-2" source="9-p3QIqHMCxuxGA2po6K-1" target="9-p3QIqHMCxuxGA2po6K-2">
          <mxGeometry relative="1" as="geometry">
            <mxPoint x="210" y="135" as="targetPoint" />
          </mxGeometry>
        </mxCell>
        <mxCell id="J6xqg7GXFHYMLYkUjcn5-3" value="Lane 2" style="swimlane;html=1;startSize=20;horizontal=0;" parent="J6xqg7GXFHYMLYkUjcn5-1" vertex="1">
          <mxGeometry y="210" width="1150" height="120" as="geometry" />
        </mxCell>
        <mxCell id="J6xqg7GXFHYMLYkUjcn5-4" value="Lane 3" style="swimlane;html=1;startSize=20;horizontal=0;" parent="J6xqg7GXFHYMLYkUjcn5-1" vertex="1">
          <mxGeometry y="330" width="1150" height="120" as="geometry" />
        </mxCell>
      </root>
    </mxGraphModel>
  </diagram>
</mxfile>
